<svg id="Group_6395" data-name="Group 6395" xmlns="http://www.w3.org/2000/svg" xmlns:xlink="http://www.w3.org/1999/xlink" width="187" height="33.534" viewBox="0 0 187 33.534">
  <defs>
    <clipPath id="clip-path">
      <rect id="Rectangle_62" data-name="Rectangle 62" width="187" height="33.534" fill="none"/>
    </clipPath>
  </defs>
  <path id="Path_27819" data-name="Path 27819" d="M0,0V4.233H20.143V25.89H24.9V4.233H45.044V0Z" transform="translate(0 0)" fill="#012354"/>
  <g id="Group_6394" data-name="Group 6394">
    <g id="Group_6393" data-name="Group 6393" clip-path="url(#clip-path)">
      <path id="Path_27820" data-name="Path 27820" d="M522.046,2.744h-2.693a.494.494,0,0,0-.544.544V4.35h-2.842V1.583c0-1.161.4-1.582,1.582-1.582h12.233c1.186,0,1.582.42,1.582,1.582V4.35h-2.842V3.288a.5.5,0,0,0-.544-.544h-2.694v14.8h-3.237Z" transform="translate(-429.917 -0.001)" fill="#012354"/>
      <path id="Path_27821" data-name="Path 27821" d="M603.837,32.752c-.124-.371-.321-.445-.692-.445H602.8V29.638h2.15c1.038,0,1.532.321,1.779,1.285l1.854,6.994a10.846,10.846,0,0,1,.247,1.335h.049a11.082,11.082,0,0,1,.3-1.335l2.323-8.229h2.768l2.348,8.229a8.772,8.772,0,0,1,.272,1.335h.049a10.813,10.813,0,0,1,.247-1.335l1.829-6.994c.247-.964.742-1.285,1.779-1.285h2.15v2.669h-.346a.6.6,0,0,0-.692.445l-3.015,9.49h-3.533L613.2,35.05a10.867,10.867,0,0,1-.3-1.359h-.049s-.124.692-.321,1.359l-2.125,7.191h-3.559Z" transform="translate(-502.267 -24.695)" fill="#012354"/>
      <path id="Path_27822" data-name="Path 27822" d="M735.2,27.859a6.6,6.6,0,1,1-6.895,6.6,6.612,6.612,0,0,1,6.895-6.6m0,10.527a3.933,3.933,0,0,0,0-7.859,3.761,3.761,0,0,0-3.732,3.929,3.746,3.746,0,0,0,3.732,3.929" transform="translate(-606.843 -23.213)" fill="#012354"/>
      <path id="Path_27823" data-name="Path 27823" d="M334.076,128.659a5.329,5.329,0,0,1-3.975,1.7,3.742,3.742,0,0,1-2.734-1.046,3.6,3.6,0,0,1-1.067-2.686,6.836,6.836,0,0,1,2.79-5.462,4.244,4.244,0,0,1,2.45-.882,2.288,2.288,0,0,1,1.643.6,2.069,2.069,0,0,1,.636,1.57,3.293,3.293,0,0,1-.768,2.178,2.283,2.283,0,0,1-1.8.921,1.381,1.381,0,0,1-.89-.278.875.875,0,0,1-.347-.716,1,1,0,0,1,.3-.695.677.677,0,0,0,.611.41,1.305,1.305,0,0,0,1.032-.695,2.637,2.637,0,0,0,.476-1.522,1.448,1.448,0,0,0-.268-.917.862.862,0,0,0-.712-.34,2,2,0,0,0-1.379.806,6.562,6.562,0,0,0-1.223,2.071,6.661,6.661,0,0,0-.49,2.4,3.465,3.465,0,0,0,.823,2.383,2.673,2.673,0,0,0,2.095.931,2.848,2.848,0,0,0,1.452-.374,5.519,5.519,0,0,0,1.341-1.169Z" transform="translate(-271.881 -100.225)" fill="#012354"/>
      <path id="Path_27824" data-name="Path 27824" d="M378.775,148.613a2.333,2.333,0,0,1-.688.441,1.581,1.581,0,0,1-.528.129,1.6,1.6,0,0,1-.994-.389,2.8,2.8,0,0,1-2.293,1.515,1.614,1.614,0,0,1-1.306-.6,2.436,2.436,0,0,1-.5-1.605,3.728,3.728,0,0,1,1.126-2.72,3.653,3.653,0,0,1,2.689-1.136,2.163,2.163,0,0,1,.865.129.6.6,0,0,1,.337.3,1.3,1.3,0,0,1,.063.438,9.418,9.418,0,0,1-.709,3.189,1.089,1.089,0,0,0,.744.327q.465,0,1.2-.813Zm-2.293-3.884a.837.837,0,0,0-.3-.042,1.562,1.562,0,0,0-1.414.945,4.579,4.579,0,0,0-.511,2.21,2.213,2.213,0,0,0,.222,1.091.684.684,0,0,0,.618.389q.493,0,1.07-.91a2.779,2.779,0,0,1-.653-1.765,2.427,2.427,0,0,1,.966-1.918" transform="translate(-310.348 -120.186)" fill="#012354"/>
      <path id="Path_27825" data-name="Path 27825" d="M416.732,148.544q-1.605,1.7-2.752,1.7a.948.948,0,0,1-.75-.327,1.284,1.284,0,0,1-.285-.876,6.94,6.94,0,0,1,.611-2.272,4.089,4.089,0,0,0,.327-1.042q0-.222-.174-.222a.54.54,0,0,0-.257.1,3.205,3.205,0,0,0-.341.271q-.174.16-.389.389-.187.195-.4.445l-.389.452a1.437,1.437,0,0,0-.32.66,10.527,10.527,0,0,0-.139,1.084q-.021.368-.021.993l-1.535.361q-.077-.938-.076-1.4a8.376,8.376,0,0,1,.261-2.119,13.723,13.723,0,0,1,.837-2.251l1.7-.327a16.128,16.128,0,0,0-.7,2.265,13.278,13.278,0,0,1,1.808-1.761,2.1,2.1,0,0,1,1.19-.49.755.755,0,0,1,.59.267.975.975,0,0,1,.236.67,7.092,7.092,0,0,1-.6,2.195,5.163,5.163,0,0,0-.41,1.363q0,.418.341.418.509,0,1.644-1.341Z" transform="translate(-341.488 -120.117)" fill="#012354"/>
      <path id="Path_27826" data-name="Path 27826" d="M457.606,148.544q-1.6,1.7-2.752,1.7a.948.948,0,0,1-.75-.327,1.284,1.284,0,0,1-.285-.876,6.938,6.938,0,0,1,.611-2.272,4.084,4.084,0,0,0,.327-1.042q0-.222-.174-.222a.54.54,0,0,0-.257.1,3.187,3.187,0,0,0-.341.271q-.174.16-.389.389-.187.195-.4.445l-.389.452a1.436,1.436,0,0,0-.32.66,10.485,10.485,0,0,0-.139,1.084q-.021.368-.021.993l-1.536.361q-.077-.938-.076-1.4a8.379,8.379,0,0,1,.26-2.119,13.73,13.73,0,0,1,.837-2.251l1.7-.327a16.139,16.139,0,0,0-.7,2.265,13.287,13.287,0,0,1,1.808-1.761,2.1,2.1,0,0,1,1.19-.49.755.755,0,0,1,.59.267.975.975,0,0,1,.236.67,7.093,7.093,0,0,1-.6,2.195,5.16,5.16,0,0,0-.41,1.363q0,.418.341.418.508,0,1.644-1.341Z" transform="translate(-375.546 -120.117)" fill="#012354"/>
      <path id="Path_27827" data-name="Path 27827" d="M496.991,148.684a8.6,8.6,0,0,1-1.584,1.282,3,3,0,0,1-1.55.413,2.017,2.017,0,0,1-1.525-.6,2.2,2.2,0,0,1-.58-1.591,3.991,3.991,0,0,1,1.022-2.665,2.96,2.96,0,0,1,2.265-1.192,1.536,1.536,0,0,1,1.035.333,1.1,1.1,0,0,1,.389.876q0,1.438-3.058,2.335.278,1.355,1.452,1.355a1.7,1.7,0,0,0,.876-.247,7.591,7.591,0,0,0,1.258-1.095ZM493.35,147.4q1.779-.5,1.779-1.848,0-.667-.486-.667-.459,0-.876.7a3.511,3.511,0,0,0-.417,1.817" transform="translate(-409.74 -120.257)" fill="#012354"/>
      <path id="Path_27828" data-name="Path 27828" d="M528.088,148.613a7.851,7.851,0,0,1-1.629,1.286,3.147,3.147,0,0,1-1.546.41,2.009,2.009,0,0,1-2.077-2.078,4.1,4.1,0,0,1,1.08-2.734,3.092,3.092,0,0,1,2.338-1.254,1.466,1.466,0,0,1,1.008.344,1.137,1.137,0,0,1,.389.893.484.484,0,0,1-.073.292.752.752,0,0,1-.275.194l-.806.382a.579.579,0,0,1-.216.07q-.1,0-.1-.139,0-.055.042-.365t.042-.379a.855.855,0,0,0-.128-.493.4.4,0,0,0-.344-.188q-.507,0-.927.75a3.437,3.437,0,0,0-.421,1.71,2.045,2.045,0,0,0,.4,1.32,1.285,1.285,0,0,0,1.056.493,1.908,1.908,0,0,0,1.06-.323,6.606,6.606,0,0,0,1.129-.99Z" transform="translate(-435.639 -120.186)" fill="#012354"/>
      <path id="Path_27829" data-name="Path 27829" d="M557.988,136.815a9.984,9.984,0,0,1-1.515,1.282,2.256,2.256,0,0,1-1.216.413,1.151,1.151,0,0,1-.969-.5,2.175,2.175,0,0,1-.372-1.324,6.992,6.992,0,0,1,.357-1.908l.295-1.052-.533.028.223-1.091.661-.028.653-2.168,1.856-.381-.718,2.417.981-.056-.23,1.07-1.078.083-.463,1.557a4.821,4.821,0,0,0-.241,1.291.828.828,0,0,0,.164.532.514.514,0,0,0,.421.205,1.28,1.28,0,0,0,.7-.226,6.676,6.676,0,0,0,1.023-.942Z" transform="translate(-461.537 -108.388)" fill="#012354"/>
      <path id="Path_27830" data-name="Path 27830" d="M581.362,134.761q-1.626,1.709-2.432,1.709a.89.89,0,0,1-.751-.455,2.006,2.006,0,0,1-.306-1.143,12.46,12.46,0,0,1,1-4.1l1.765-.368h.083l-.695,2.175a7.406,7.406,0,0,0-.431,1.925.63.63,0,0,0,.1.372.3.3,0,0,0,.254.142.931.931,0,0,0,.545-.2,6.691,6.691,0,0,0,.865-.858Zm-.139-7.074q0,1.668-1.23,1.668a1.522,1.522,0,0,1-1.021-.361,5.033,5.033,0,0,0,.625-1.376,1.841,1.841,0,0,0,.882.341,1.246,1.246,0,0,0,.744-.271" transform="translate(-481.499 -106.335)" fill="#012354"/>
      <path id="Path_27831" data-name="Path 27831" d="M605.267,148.544q-1.605,1.7-2.752,1.7a.947.947,0,0,1-.75-.327,1.284,1.284,0,0,1-.285-.876,6.94,6.94,0,0,1,.612-2.272,4.088,4.088,0,0,0,.326-1.042q0-.222-.173-.222a.539.539,0,0,0-.257.1,3.172,3.172,0,0,0-.341.271q-.173.16-.389.389-.187.195-.4.445l-.389.452a1.437,1.437,0,0,0-.32.66,10.478,10.478,0,0,0-.139,1.084q-.021.368-.021.993l-1.536.361q-.077-.938-.076-1.4a8.366,8.366,0,0,1,.261-2.119,13.735,13.735,0,0,1,.837-2.251l1.7-.327a16.125,16.125,0,0,0-.7,2.265,13.282,13.282,0,0,1,1.808-1.761,2.1,2.1,0,0,1,1.19-.49.754.754,0,0,1,.59.267.974.974,0,0,1,.236.67,7.088,7.088,0,0,1-.6,2.195,5.168,5.168,0,0,0-.41,1.363q0,.418.341.418.508,0,1.644-1.341Z" transform="translate(-498.58 -120.117)" fill="#012354"/>
      <path id="Path_27832" data-name="Path 27832" d="M646.14,148.614a5.366,5.366,0,0,1-2.112,1.361,7.467,7.467,0,0,1-1.463,2.773,2.552,2.552,0,0,1-1.88.973,1.17,1.17,0,0,1-.876-.34,1.226,1.226,0,0,1-.334-.9,1.755,1.755,0,0,1,.664-1.334,6.881,6.881,0,0,1,2.255-1.139l.3-1.369a7.655,7.655,0,0,1-1.153,1.1,1.665,1.665,0,0,1-.98.351,1.1,1.1,0,0,1-.945-.542,2.462,2.462,0,0,1-.368-1.41,3.982,3.982,0,0,1,1.08-2.658,3.069,3.069,0,0,1,2.3-1.24,1.58,1.58,0,0,1,1.195.57q.313-.111.813-.334l.493-.222h.16a12.32,12.32,0,0,0-.416,1.6l-.652,3.481a4.973,4.973,0,0,0,1.924-1.522Zm-3.892,2.008q-2.244.806-2.244,1.862a.712.712,0,0,0,.188.511.631.631,0,0,0,.479.2,1.041,1.041,0,0,0,.869-.632,8.112,8.112,0,0,0,.708-1.939m-.583-1.779a1.069,1.069,0,0,0,.875-.584,4.652,4.652,0,0,0,.594-1.48,6.48,6.48,0,0,0,.212-1.244.856.856,0,0,0-.163-.538.5.5,0,0,0-.406-.212q-.737,0-1.286.994a4.138,4.138,0,0,0-.549,2.022,1.3,1.3,0,0,0,.2.761.613.613,0,0,0,.525.282" transform="translate(-532.637 -120.187)" fill="#012354"/>
      <path id="Path_27833" data-name="Path 27833" d="M709.755,121.836a2.422,2.422,0,0,0-.6.824,7.407,7.407,0,0,0-.361,1.81,16.85,16.85,0,0,1-.4,2.262,4.9,4.9,0,0,1-.826,1.7,4.108,4.108,0,0,1-1.487,1.237,4.283,4.283,0,0,1-1.935.448,2.23,2.23,0,0,1-1.414-.389,1.33,1.33,0,0,1-.49-1.1,1.877,1.877,0,0,1,.042-.431,3.392,3.392,0,0,1,.778-.525,1.809,1.809,0,0,1,.6-.226q.25,0,.25.382,0,.063-.055.434t-.056.448q0,.855.737.855t1.293-.969a8.1,8.1,0,0,0,.789-2.894,7.7,7.7,0,0,1,.667-2.658,3.1,3.1,0,0,1,1.081-1.126,2.224,2.224,0,0,1,1.015-.393q.181,0,.368.313m-.229,2.689a1.161,1.161,0,0,0,1.084-.587,2.511,2.511,0,0,0,.34-1.282,1.961,1.961,0,0,0-.636-1.532,2.463,2.463,0,0,0-1.713-.573,4.315,4.315,0,0,0-2.6.837,2.331,2.331,0,0,0-1.154,1.852.925.925,0,0,0,.653.883c.111.046.167.09.167.132v.215q0,.153-.553.382a2.562,2.562,0,0,1-.726.229q-.271,0-.549-.441a1.689,1.689,0,0,1-.278-.914,2.918,2.918,0,0,1,.678-1.73,4.725,4.725,0,0,1,1.911-1.452,6.9,6.9,0,0,1,2.832-.549,4.859,4.859,0,0,1,2.769.716,2.142,2.142,0,0,1,1.06,1.835q0,1.668-2.363,2.279a2.27,2.27,0,0,1,1.855,2.272,2.833,2.833,0,0,1-.928,2.123,3.1,3.1,0,0,1-2.22.886,1.822,1.822,0,0,1-.952-.229.656.656,0,0,1-.382-.556,1.185,1.185,0,0,1,.243-.584q.243-.368.451-.368.285,0,.34.667.042.528.327.528.466,0,.823-1.035a6.344,6.344,0,0,0,.358-2.085q0-1.271-.91-1.41Z" transform="translate(-585.127 -99.982)" fill="#012354"/>
      <path id="Path_27834" data-name="Path 27834" d="M769.771,134.761q-1.626,1.709-2.432,1.709a.89.89,0,0,1-.751-.455,2,2,0,0,1-.306-1.143,12.459,12.459,0,0,1,1-4.1l1.765-.368h.083l-.695,2.175a7.4,7.4,0,0,0-.431,1.925.628.628,0,0,0,.1.372.3.3,0,0,0,.254.142.931.931,0,0,0,.545-.2,6.7,6.7,0,0,0,.865-.858Zm-.139-7.074q0,1.668-1.23,1.668a1.522,1.522,0,0,1-1.022-.361,5.037,5.037,0,0,0,.625-1.376,1.84,1.84,0,0,0,.882.341,1.246,1.246,0,0,0,.744-.271" transform="translate(-638.486 -106.335)" fill="#012354"/>
      <path id="Path_27835" data-name="Path 27835" d="M790.853,136.815a9.993,9.993,0,0,1-1.515,1.282,2.257,2.257,0,0,1-1.216.413,1.152,1.152,0,0,1-.97-.5,2.177,2.177,0,0,1-.372-1.324,6.988,6.988,0,0,1,.357-1.908l.295-1.052-.534.028.223-1.091.661-.028.653-2.168,1.856-.381-.718,2.417.981-.056-.229,1.07-1.078.083-.463,1.557a4.82,4.82,0,0,0-.241,1.291.828.828,0,0,0,.164.532.513.513,0,0,0,.421.205,1.281,1.281,0,0,0,.7-.226,6.675,6.675,0,0,0,1.023-.942Z" transform="translate(-655.566 -108.388)" fill="#012354"/>
      <path id="Path_27836" data-name="Path 27836" d="M812.533,144.612q.479-.125.966-.205a5.883,5.883,0,0,1,.584-.08c.046,0,.069.018.069.056a.479.479,0,0,1-.055.215,1.86,1.86,0,0,0-.111.611,2.02,2.02,0,0,0,.418.987,2.134,2.134,0,0,1,.416,1.161,2.87,2.87,0,0,1-1.018,2.05,3.032,3.032,0,0,1-2.109.987,1.561,1.561,0,0,1-.862-.25q-.389-.25-.389-.535a1.458,1.458,0,0,1,.385-.632q.386-.466.553-.466.222,0,.4.57t.6.57a1.092,1.092,0,0,0,.8-.393,1.212,1.212,0,0,0,.372-.844,2.376,2.376,0,0,0-.472-1.167,5.248,5.248,0,0,1-.625-1.223,18.523,18.523,0,0,1-2.043,2.662h-.16v-.625a10.4,10.4,0,0,0,2.293-3.447" transform="translate(-675.112 -120.257)" fill="#012354"/>
      <path id="Path_27837" data-name="Path 27837" d="M843.558,168.631a4.293,4.293,0,0,1-.559,1.3.929.929,0,0,1-.761.308,1.973,1.973,0,0,1-1.209-.445,6.717,6.717,0,0,0,.695-1.633,3.776,3.776,0,0,0,.653.482,1.131,1.131,0,0,0,.5.1,2.909,2.909,0,0,0,.681-.111" transform="translate(-700.767 -140.114)" fill="#012354"/>
      <path id="Path_27838" data-name="Path 27838" d="M860.475,168.631a4.3,4.3,0,0,1-.559,1.3.929.929,0,0,1-.761.308,1.972,1.972,0,0,1-1.209-.445,6.729,6.729,0,0,0,.695-1.633,3.777,3.777,0,0,0,.653.482,1.132,1.132,0,0,0,.5.1,2.909,2.909,0,0,0,.681-.111" transform="translate(-714.862 -140.114)" fill="#012354"/>
      <path id="Path_27839" data-name="Path 27839" d="M877.391,168.631a4.292,4.292,0,0,1-.559,1.3.929.929,0,0,1-.761.308,1.972,1.972,0,0,1-1.209-.445,6.732,6.732,0,0,0,.695-1.633,3.779,3.779,0,0,0,.653.482,1.132,1.132,0,0,0,.5.1,2.908,2.908,0,0,0,.681-.111" transform="translate(-728.957 -140.114)" fill="#012354"/>
      <path id="Path_27840" data-name="Path 27840" d="M6.951,68.183a2.11,2.11,0,0,1-1.545-.649,2.226,2.226,0,0,1-.093-3.043,2.077,2.077,0,0,1,1.359-.726l.031-.031h8.681V59.44H6.951a2.1,2.1,0,0,1-1.545-.653A2.167,2.167,0,0,1,4.758,57.2a2.13,2.13,0,0,1,.649-1.555,2.1,2.1,0,0,1,1.545-.654h8.434V50.759h-8.8a6.587,6.587,0,0,0-2.568.572,6.993,6.993,0,0,0-2.1,1.437,6.677,6.677,0,0,0-.744,8.465l.278.371-.278.371A6.3,6.3,0,0,0,0,65.743a6.576,6.576,0,0,0,1.918,4.665,6.975,6.975,0,0,0,2.1,1.437,6.569,6.569,0,0,0,2.568.572H38.455a6.568,6.568,0,0,0,2.568-.572,6.973,6.973,0,0,0,2.1-1.437,6.576,6.576,0,0,0,1.918-4.665,6.305,6.305,0,0,0-1.174-3.769l-.278-.371.278-.371a6.642,6.642,0,0,0-.744-8.465,6.991,6.991,0,0,0-2.1-1.437,6.585,6.585,0,0,0-2.568-.572h-8.8v4.233h8.434a2.1,2.1,0,0,1,1.545.654,2.131,2.131,0,0,1,.649,1.555,2.167,2.167,0,0,1-.649,1.587,2.1,2.1,0,0,1-1.545.653H29.659v4.294H38.34l.031.031a2.078,2.078,0,0,1,1.359.726,2.227,2.227,0,0,1-.093,3.043,2.11,2.11,0,0,1-1.545.649Z" transform="translate(0 -42.294)" fill="#298939"/>
      <path id="Path_27841" data-name="Path 27841" d="M327.906,2.744H326.3V0h7.587c3.163,0,5.437,1.631,5.437,4.522A4.091,4.091,0,0,1,337.2,8.28v.049a4.114,4.114,0,0,1,2.817,4.127c0,3.509-2.792,5.091-6.054,5.091h-4.374c-1.162,0-1.68-.494-1.68-1.681Zm6.005,4.424a2.069,2.069,0,0,0,2.125-2.249,2.012,2.012,0,0,0-2.175-2.175h-2.718V7.168ZM331.687,14.8h2.521a2.342,2.342,0,0,0,2.471-2.545,2.347,2.347,0,0,0-2.471-2.521h-3.065V14.26a.494.494,0,0,0,.544.544" transform="translate(-271.881 -0.001)" fill="#298939"/>
      <path id="Path_27842" data-name="Path 27842" d="M419.851,8.155a.484.484,0,0,0-.544-.544h-.988V4.943h2.99c1.162,0,1.656.519,1.656,1.68v7.735a.5.5,0,0,0,.544.544h.988v2.644h-2.99c-1.161,0-1.655-.494-1.655-1.681ZM420,0h2.718V2.892H420Z" transform="translate(-348.554)" fill="#298939"/>
      <path id="Path_27843" data-name="Path 27843" d="M463.365,14.972h-1.631v-2.5h1.705V9.041H466.5v3.435h2.867v2.5H466.5v5.091a2.238,2.238,0,0,0,2.5,2.372,2.9,2.9,0,0,0,.568-.049v2.743a5.783,5.783,0,0,1-.964.074c-1.755,0-5.239-.519-5.239-4.745Z" transform="translate(-384.728 -7.533)" fill="#298939"/>
      <path id="Path_27844" data-name="Path 27844" d="M822.374,2.744h-1.606V0h7.587c3.163,0,5.437,1.631,5.437,4.522a4.091,4.091,0,0,1-2.125,3.756v.049a4.114,4.114,0,0,1,2.817,4.127c0,3.509-2.792,5.091-6.054,5.091h-4.374c-1.161,0-1.68-.494-1.68-1.681Zm6.005,4.424A2.069,2.069,0,0,0,830.5,4.919a2.012,2.012,0,0,0-2.175-2.175h-2.718V7.168ZM826.155,14.8h2.521a2.342,2.342,0,0,0,2.471-2.545,2.348,2.348,0,0,0-2.471-2.521h-3.064V14.26a.494.494,0,0,0,.544.544" transform="translate(-683.885 -0.001)" fill="#298939"/>
      <path id="Path_27845" data-name="Path 27845" d="M912.245,44.787a2.25,2.25,0,0,0,2.076-1.606l.42-.964-4.2-9.465a.591.591,0,0,0-.667-.445H909.5V29.638h2.076a1.531,1.531,0,0,1,1.656,1.186l2.471,6.3a12.406,12.406,0,0,1,.445,1.681h.049a15.318,15.318,0,0,1,.42-1.681l2.15-6.3a1.558,1.558,0,0,1,1.681-1.186h2.125v2.669H922.2a.63.63,0,0,0-.717.445l-4.522,11.392a4.769,4.769,0,0,1-4.547,3.287,4.664,4.664,0,0,1-3.188-1.285l1.211-2.224a2.715,2.715,0,0,0,1.8.865" transform="translate(-757.593 -24.695)" fill="#298939"/>
      <path id="Path_27846" data-name="Path 27846" d="M995.47,14.972h-1.631v-2.5h1.705V9.041h3.064v3.435h2.866v2.5h-2.866v5.091a2.238,2.238,0,0,0,2.5,2.372,2.9,2.9,0,0,0,.568-.049v2.743a5.78,5.78,0,0,1-.964.074c-1.755,0-5.239-.519-5.239-4.745Z" transform="translate(-828.092 -7.533)" fill="#298939"/>
      <path id="Path_27847" data-name="Path 27847" d="M1055.806,27.859c3.608,0,5.585,2.644,5.585,5.98,0,.371-.074,1.161-.074,1.161h-8.7a3.624,3.624,0,0,0,3.781,3.386,5.729,5.729,0,0,0,3.534-1.409l1.31,2.175a7.667,7.667,0,0,1-5.066,1.9,6.458,6.458,0,0,1-6.771-6.6,6.217,6.217,0,0,1,6.4-6.6m2.372,4.967a2.447,2.447,0,0,0-2.372-2.545,3.02,3.02,0,0,0-3.089,2.545Z" transform="translate(-874.391 -23.213)" fill="#298939"/>
    </g>
  </g>
</svg>
